Coordinates
version=1
nRows=4
nColumns=107
inDegrees=yes

Units are S.I. units (second, meters, Newtons, ...)
If the header above contains a line with 'inDegrees', this indicates whether rotational values are in degrees (yes) or radians (no).

endheader
time	sternoclavicular_r2	sternoclavicular_r3	unrotscap_r3	unrotscap_r2	acromioclavicular_r2	acromioclavicular_r3	acromioclavicular_r1	unrothum_r1	unrothum_r3	unrothum_r2	elv_angle	shoulder_elv	shoulder1_r2	shoulder_rot	elbow_flexion	pro_sup	deviation	flexion	proximal_distal_r1	proximal_distal_r3	cmc_flexion	cmc_abduction	mp_flexion	ip_flexion	mcp2_flexion	mcp2_abduction	pm2_flexion	md2_flexion	mcp3_flexion	mcp3_abduction	pm3_flexion	md3_flexion	mcp4_flexion	mcp4_abduction	pm4_flexion	md4_flexion	mcp5_flexion	mcp5_abduction	pm5_flexion	md5_flexion	bicpt_tx	bicpt_ty	bicpt_tz	bicpt2_tx	bicpt2_ty	bicpt2_tz	ptpt_tx	ptpt_ty	ptpt_tz	FCUpt_tx	FCUpt_ty	FCUpt_tz	EDCpt_tx	EDCpt_ty	EDCpt_tz	APLpt_tx	APLpt_ty	APLpt_tz	FPLpt_tx	FPLpt_ty	FPLpt_tz	FPLpt2_tx	FPLpt2_ty	FPLpt2_tz	PEC1pt2_tx	PEC1pt2_ty	PEC1pt2_tz	PEC1pt3_tx	PEC1pt3_ty	PEC1pt3_tz	PEC2pt2_tx	PEC2pt2_ty	PEC2pt2_tz	PEC2pt3_tx	PEC2pt3_ty	PEC2pt3_tz	PEC3pt2_tx	PEC3pt2_ty	PEC3pt2_tz	PEC3pt3_tx	PEC3pt3_ty	PEC3pt3_tz	DELT2pt2a_tx	DELT2pt2a_ty	DELT2pt2a_tz	DELT2pt2_tx	DELT2pt2_ty	DELT2pt2_tz	LAT1pt2_tx	LAT1pt2_ty	LAT1pt2_tz	LAT1pt3_tx	LAT1pt3_ty	LAT1pt3_tz	LAT2pt2_tx	LAT2pt2_ty	LAT2pt2_tz	LAT2pt3_tx	LAT2pt3_ty	LAT2pt3_tz	LAT3pt2_tx	LAT3pt2_ty	LAT3pt2_tz	LAT3pt3_tx	LAT3pt3_ty	LAT3pt3_tz
      0.46666667	     -0.31436771	      0.13315133	     -0.13315133	      0.31436771	     -0.06365307	      0.51442170	      0.23122901	     -0.23122901	     -0.51442170	      0.06365307	    101.37498828	     74.42935077	     -1.76932732	    -36.80875453	     31.38370597	     84.65948511	      0.36613041	     -0.41677080	      0.38716843	     -0.20838540	     42.11263256	    -17.88700499	     17.44501740	      1.46195683	     89.05143134	      6.27676774	     83.94842093	     82.13897574	     88.99755386	     -3.85738406	     85.31163232	     62.39975747	     73.67433441	    -12.47365636	    105.00951906	     39.06175153	     69.84686616	    -13.84055246	    105.60822260	      5.39664426	      0.00093808	     -0.03119705	     -0.00487939	      0.01437642	     -0.01872554	     -0.00130434	      0.00129462	     -0.06894483	     -0.00686978	      0.01258429	     -0.18228288	      0.00004755	     -0.01015911	      0.00350473	     -0.00071466	      0.00028095	      0.00011238	      0.00056190	      0.00035962	      0.00107885	      0.00060685	     -0.00000715	     -0.00006755	     -0.00008106	      0.00243963	      0.00855938	      0.00595435	     -0.00798049	      0.01926895	     -0.01827656	      0.00243963	      0.00855938	      0.00595435	      0.00053755	      0.01786306	     -0.00938638	      0.00388161	      0.00475976	      0.01580321	      0.00000000	      0.00740632	      0.00000000	     -0.00698809	     -0.03229410	     -0.00610468	      0.02158629	     -0.00099553	     -0.01107683	     -0.00086834	      0.01455509	     -0.00595435	      0.00239828	      0.02100563	     -0.01736686	     -0.00583030	      0.01261165	     -0.00533411	     -0.01215680	      0.02662919	     -0.02981312	     -0.02282502	      0.01410024	     -0.00715349	     -0.01513398	      0.03076416	     -0.03725606
      0.50000000	     -0.31237750	      0.13230837	     -0.13230837	      0.31237750	     -0.06325009	      0.51116497	      0.22976514	     -0.22976514	     -0.51116497	      0.06325009	    102.27731981	     73.95814978	     -1.78507598	    -40.19269919	     31.17143852	     86.04003864	      0.32029657	     -0.52993582	      0.35071779	     -0.26496791	     42.33204877	    -17.66112843	     16.93842210	      2.22229780	     89.37542380	      6.30387043	     83.95062733	     80.56376082	     89.45492763	     -3.91117197	     85.09178465	     61.26056023	     73.86130081	    -12.49055294	    104.86898741	     38.09163450	     70.06141082	    -13.82497500	    104.92896124	      5.45007953	      0.00093105	     -0.03117272	     -0.00487547	      0.01423577	     -0.01866787	     -0.00106918	      0.00119261	     -0.06901079	     -0.00698099	      0.01274260	     -0.18223638	      0.00008490	     -0.01032478	      0.00358021	     -0.00075850	      0.00030705	      0.00012282	      0.00061410	      0.00039302	      0.00117907	      0.00066323	     -0.00000672	     -0.00006275	     -0.00007530	      0.00242419	      0.00850519	      0.00591666	     -0.00792996	      0.01914696	     -0.01816085	      0.00242419	      0.00850519	      0.00591666	      0.00053414	      0.01774997	     -0.00932695	      0.00386343	      0.00472963	      0.01575736	      0.00000000	      0.00731225	      0.00000000	     -0.00694385	     -0.03208965	     -0.00602653	      0.02270163	     -0.00111788	     -0.01302922	     -0.00086285	      0.01446294	     -0.00591666	      0.00238310	      0.02087265	     -0.01725692	     -0.00579339	      0.01253181	     -0.00530034	     -0.01207984	      0.02646060	     -0.02962437	     -0.02268052	      0.01401097	     -0.00710821	     -0.01503817	      0.03056939	     -0.03702019
      0.53333333	     -0.31305069	      0.13259350	     -0.13259350	      0.31305069	     -0.06338640	      0.51226656	      0.23026029	     -0.23026029	     -0.51226656	      0.06338640	    101.85671627	     74.11753306	     -1.77773506	    -38.70506837	     31.46496186	     85.98906573	      0.35351420	     -0.44013705	      0.37747813	     -0.22006853	     42.31441995	    -17.95467249	     17.63493033	      1.69425895	     89.35334960	      6.52016655	     83.81298185	     80.43307978	     89.29820285	     -3.63064319	     85.18057829	     61.05443712	     73.68246431	    -12.37710803	    104.51402422	     38.49156455	     69.79214589	    -13.79402960	    104.81782865	      5.43007368	      0.00094076	     -0.03120637	     -0.00488089	      0.01424104	     -0.01874761	     -0.00107791	      0.00119638	     -0.06900836	     -0.00697688	      0.01273675	     -0.18223811	      0.00008350	     -0.01031866	      0.00357741	     -0.00075687	      0.00028809	      0.00011524	      0.00057618	      0.00036876	      0.00110627	      0.00062228	     -0.00000675	     -0.00006313	     -0.00007576	      0.00242941	      0.00852352	      0.00592941	     -0.00794705	      0.01918822	     -0.01819999	      0.00242941	      0.00852352	      0.00592941	      0.00053529	      0.01778822	     -0.00934705	      0.00386959	      0.00473982	      0.01577293	      0.00000000	      0.00734400	      0.00000000	     -0.00695882	     -0.03215880	     -0.00605291	      0.02223019	     -0.00106383	     -0.01215816	     -0.00086471	      0.01449411	     -0.00592941	      0.00238823	      0.02091763	     -0.01729411	     -0.00580588	      0.01255881	     -0.00531176	     -0.01210587	      0.02651763	     -0.02968821	     -0.02272940	      0.01404117	     -0.00712352	     -0.01507058	      0.03063527	     -0.03709997
      0.56666667	     -0.31250842	      0.13236382	     -0.13236382	      0.31250842	     -0.06327660	      0.51137920	      0.22986143	     -0.22986143	     -0.51137920	      0.06327660	    102.14264242	     73.98914545	     -1.78272542	    -39.76990374	     31.30942763	     86.05499684	      0.33073296	     -0.49493868	      0.35931996	     -0.24746934	     42.25969518	    -17.75854878	     17.29787945	      1.63837758	     89.60961364	      6.40249574	     84.06630668	     79.51469447	     89.51584432	     -3.72129915	     85.30272121	     60.48026010	     73.91588861	    -12.42503607	    104.90601095	     37.94530513	     70.08130468	    -13.79713291	    105.57705839	      5.43200347	      0.00093562	     -0.03118854	     -0.00487802	      0.01423422	     -0.01870536	     -0.00106662	      0.00119151	     -0.06901151	     -0.00698219	      0.01274432	     -0.18223587	      0.00008531	     -0.01032658	      0.00358103	     -0.00075898	      0.00030125	      0.00012050	      0.00060249	      0.00038560	      0.00115679	      0.00065069	     -0.00000686	     -0.00006434	     -0.00007720	      0.00242520	      0.00850876	      0.00591914	     -0.00793329	      0.01915498	     -0.01816846	      0.00242520	      0.00850876	      0.00591914	      0.00053437	      0.01775741	     -0.00933086	      0.00386463	      0.00473161	      0.01576039	      0.00000000	      0.00731842	      0.00000000	     -0.00694676	     -0.03210310	     -0.00603166	      0.02257071	     -0.00110248	     -0.01277967	     -0.00086321	      0.01446900	     -0.00591914	      0.00238410	      0.02088140	     -0.01726415	     -0.00579582	      0.01253706	     -0.00530256	     -0.01208490	      0.02647169	     -0.02963679	     -0.02269002	      0.01401684	     -0.00711118	     -0.01504447	      0.03058221	     -0.03703571
